<svg width="100" height="100" viewBox="0 0 100 100" fill="none" xmlns="http://www.w3.org/2000/svg">
<path d="M50 0C77.6142 0 100 22.3858 100 50C100 77.6142 77.6142 100 50 100C22.3858 100 0 77.6142 0 50C0 22.3858 22.3858 0 50 0ZM55.5918 17.4863C38.7422 17.4865 23.7676 33.1077 23.7676 54.7217C23.7676 71.4521 33.3215 82.5078 48.0625 82.5078C63.7082 82.5077 72.7546 66.9416 72.7549 61.8887C72.7549 60.7697 72.1828 60.2568 71.5859 60.2568C71.1735 60.257 70.8104 60.6054 70.4326 61.3662C66.1653 70.0193 58.7947 76.1425 50.2656 76.1426C40.4035 76.1426 34.2959 67.2394 34.2959 54.9404C34.2959 34.1071 45.9041 22.0615 56.0996 22.0615C60.8637 22.0616 63.7734 25.0559 63.7734 29.8203C63.7734 35.4747 60.5608 38.4686 60.5605 40.4629C60.5605 41.3581 61.1175 41.9004 62.2217 41.9004C66.6579 41.9003 71.8641 36.8028 71.8643 29.6016C71.8643 22.619 65.7871 17.4863 55.5918 17.4863Z" fill="#8C8C8C"/>
</svg>
