<svg width="40" height="40" viewBox="0 0 40 40" fill="none" xmlns="http://www.w3.org/2000/svg">
<path d="M2.73755 0.3125L5.87974 35.5884L19.9791 39.5197L34.1179 35.5741L37.2625 0.3125H2.73755ZM30.7347 8.39437L29.6888 20.1459L29.6919 20.2094L29.6875 20.3553V20.3541L28.9444 28.5709L28.8625 29.3009L20 31.7522V31.7525L19.9932 31.7584L11.146 29.2934L10.5469 22.5H14.8854L15.1932 25.9544L20.0013 27.2575L20 27.26V27.2594L24.826 25.9378L25.336 20.3125H15.2475L15.161 19.3616L14.9638 17.1337L14.8604 15.9375H25.7194L26.1144 11.5625H9.57505L9.48849 10.6122L9.29161 8.38375L9.18786 7.1875H30.8382L30.7347 8.39437Z" fill="#8C8C8C"/>
</svg>
