<svg width="100" height="100" viewBox="0 0 100 100" fill="none" xmlns="http://www.w3.org/2000/svg">
<g id="figma">
<g id="figma_2">
<path id="Vector" d="M33.3333 100C42.5333 100 50 92.5336 50 83.3336V66.667H33.3333C24.1333 66.667 16.6666 74.1336 16.6666 83.3336C16.6666 92.5336 24.1333 100 33.3333 100Z" fill="#8C8C8C"/>
<path id="Vector_2" d="M16.6666 50.0006C16.6666 40.8006 24.1333 33.334 33.3333 33.334H50V66.6673H33.3333C24.1333 66.6673 16.6666 59.2006 16.6666 50.0006Z" fill="#585757"/>
<path id="Vector_3" d="M16.6666 16.6671C16.6666 7.46715 24.1333 0.000488281 33.3333 0.000488281H50V33.3338H33.3333C24.1333 33.3338 16.6666 25.8671 16.6666 16.6671Z" fill="#8C8C8C"/>
<path id="Vector_4" d="M50 0.000488281H66.6667C75.8667 0.000488281 83.3334 7.46715 83.3334 16.6671C83.3334 25.8671 75.8667 33.3338 66.6667 33.3338H50V0.000488281Z" fill="#C0C0C0"/>
<path id="Vector_5" d="M83.3334 50.0006C83.3334 59.2006 75.8667 66.6673 66.6667 66.6673C57.4667 66.6673 50 59.2006 50 50.0006C50 40.8006 57.4667 33.334 66.6667 33.334C75.8667 33.334 83.3334 40.8006 83.3334 50.0006Z" fill="#C3C3C3"/>
</g>
</g>
</svg>
