<svg width="40" height="40" viewBox="0 0 40 40" fill="none" xmlns="http://www.w3.org/2000/svg">
<path d="M38.9819 18.2432L21.7578 1.02003C20.7666 0.0281543 19.1578 0.0281543 18.165 1.02003L14.5891 4.5969L19.126 9.13378C20.1807 8.77784 21.3894 9.01659 22.2297 9.8569C22.6302 10.2577 22.9098 10.7632 23.0365 11.3154C23.1632 11.8676 23.1319 12.4444 22.9463 12.9797L27.3188 17.3528C28.3766 16.9882 29.5975 17.2238 30.4419 18.07C31.6232 19.2503 31.6232 21.1638 30.4419 22.3447C30.1612 22.6256 29.8279 22.8484 29.4611 23.0004C29.0942 23.1524 28.701 23.2306 28.3039 23.2306C27.9068 23.2306 27.5137 23.1524 27.1468 23.0004C26.78 22.8484 26.4467 22.6256 26.166 22.3447C25.7442 21.9227 25.4567 21.3854 25.3397 20.8003C25.2226 20.2153 25.2812 19.6087 25.5082 19.0569L21.4307 14.9791L21.43 25.7107C21.7259 25.8563 21.996 26.0493 22.2297 26.2819C23.4107 27.4622 23.4107 29.375 22.2297 30.5578C21.0488 31.7382 19.1347 31.7382 17.955 30.5578C16.7744 29.3753 16.6775 27.4625 17.8578 26.2819C18.1497 25.9903 18.4375 25.77 18.75 25.6225V14.7916C18.4375 14.6441 18.15 14.4253 17.8575 14.1319C16.9635 13.2382 16.7963 11.9257 17.255 10.8269L12.8072 6.35409L1.00909 18.1635C0.0169019 19.1563 0.0231519 20.765 1.01534 21.7572L18.2422 38.9803C19.2338 39.9722 20.8438 39.9722 21.8369 38.9803L38.9807 21.8372C39.9728 20.8447 39.9738 19.235 38.9819 18.2432Z" fill="#8C8C8C"/>
</svg>
