<svg width="40" height="40" viewBox="0 0 40 40" fill="none" xmlns="http://www.w3.org/2000/svg">
<path fill-rule="evenodd" clip-rule="evenodd" d="M20 1.59473C9.5791 1.59473 1.12878 10.0432 1.12878 20.466C1.12878 28.8041 6.53597 35.8775 14.0341 38.3732C14.9769 38.5482 15.3232 37.9638 15.3232 37.4654C15.3232 37.0154 15.3057 35.5288 15.2975 33.9519C10.0475 35.0935 8.93972 31.7254 8.93972 31.7254C8.08128 29.5441 6.84441 28.9641 6.84441 28.9641C5.13191 27.7929 6.97347 27.8172 6.97347 27.8172C8.86816 27.95 9.86628 29.7619 9.86628 29.7619C11.5494 32.6463 14.281 31.8125 15.3578 31.3307C15.5272 30.111 16.0163 29.2782 16.556 28.8069C12.3644 28.3304 7.95785 26.7119 7.95785 19.481C7.95785 17.4207 8.69535 15.7372 9.90253 14.4154C9.70628 13.9404 9.06035 12.021 10.085 9.4216C10.085 9.4216 11.6694 8.91441 15.2757 11.356C16.7813 10.9375 18.396 10.7272 20 10.72C21.6032 10.7272 23.2188 10.9369 24.7272 11.3554C28.3291 8.91379 29.9116 9.42098 29.9116 9.42098C30.9388 12.02 30.2928 13.9397 30.0969 14.4147C31.3069 15.7366 32.0391 17.42 32.0391 19.4804C32.0391 26.7285 27.6244 28.3241 23.4222 28.7916C24.0994 29.3772 24.7025 30.526 24.7025 32.2863C24.7025 34.8113 24.6807 36.8435 24.6807 37.465C24.6807 37.9672 25.0207 38.5557 25.9769 38.3704C33.4707 35.8722 38.8716 28.801 38.8716 20.466C38.8713 10.0438 30.4219 1.59504 20 1.59504V1.59473Z" fill="#8C8C8C"/>
<path d="M8.27624 28.6894C8.23468 28.7832 8.08718 28.8113 7.95281 28.7473C7.81531 28.686 7.73874 28.5582 7.78312 28.4641C7.82374 28.3673 7.97156 28.3407 8.10812 28.4054C8.24562 28.4669 8.32374 28.596 8.27593 28.6898L8.27624 28.6894ZM9.04062 29.5423C8.95093 29.6257 8.77499 29.5869 8.65562 29.4548C8.53187 29.3235 8.50874 29.1476 8.60031 29.0629C8.69343 28.9798 8.86406 29.0191 8.98781 29.1504C9.11093 29.2835 9.13531 29.4579 9.04093 29.5426L9.04062 29.5423ZM9.78499 30.6288C9.66937 30.7094 9.47999 30.6341 9.36312 30.4663C9.24749 30.2982 9.24749 30.0966 9.36624 30.0163C9.48281 29.9357 9.66937 30.0085 9.78812 30.1748C9.90312 30.3451 9.90312 30.5466 9.78499 30.6285V30.6288ZM10.8041 31.6791C10.7009 31.7932 10.4803 31.7626 10.3191 31.6073C10.1544 31.4551 10.1084 31.2385 10.2119 31.1248C10.3169 31.0104 10.5384 31.0423 10.7006 31.1966C10.8653 31.3485 10.915 31.5654 10.8047 31.6788L10.8041 31.6791ZM12.2103 32.2888C12.1644 32.4366 11.9525 32.5038 11.7384 32.4407C11.525 32.376 11.3853 32.2032 11.4291 32.0538C11.4728 31.9048 11.6862 31.8351 11.9016 31.9023C12.115 31.9666 12.2547 32.1385 12.2103 32.2888ZM13.755 32.4016C13.7603 32.5573 13.5791 32.686 13.355 32.6891C13.1291 32.6944 12.9462 32.5682 12.9441 32.4151C12.9441 32.2579 13.1216 32.1307 13.3472 32.1263C13.5712 32.1223 13.7553 32.2473 13.7553 32.4013L13.755 32.4016ZM15.1919 32.1573C15.2187 32.3088 15.0628 32.4648 14.84 32.5063C14.6212 32.5469 14.4181 32.4526 14.39 32.3023C14.3631 32.1466 14.5219 31.9907 14.7406 31.9504C14.9637 31.9119 15.1637 32.0035 15.1919 32.1576V32.1573Z" fill="#8C8C8C"/>
</svg>
