<svg width="40" height="40" viewBox="0 0 40 40" fill="none" xmlns="http://www.w3.org/2000/svg">
<path d="M0.625 0.3125V39.375H39.6875V0.3125H0.625ZM21.2872 33.5978C20.7106 34.7694 19.61 35.5391 18.3347 35.9106C16.375 36.3606 14.5006 36.1041 13.1062 35.2672C12.1731 34.6947 11.4444 33.8134 10.9497 32.7981L13.9247 30.9762C13.9506 30.9872 14.0288 31.1284 14.1331 31.3109C14.5125 31.9466 14.8397 32.3966 15.4828 32.7125C16.1147 32.9281 17.5019 33.0659 18.0375 31.9541C18.3647 31.3884 18.2606 29.5703 18.2606 27.5588C18.2603 24.3978 18.275 21.25 18.275 18.125H21.9341C21.9341 21.5625 21.9528 24.8181 21.9341 28.1725C21.9419 30.2288 22.1203 32.0619 21.2872 33.5978ZM36.4666 32.5641C35.1947 36.9147 28.1034 37.0559 25.2697 34.1816C24.6709 33.505 24.2956 33.1516 23.9384 32.3706C25.4444 31.5044 25.4444 31.5044 26.9097 30.6566C27.7056 31.88 28.4416 32.5528 29.7656 32.8281C31.5619 33.0475 33.3691 32.4303 32.9637 30.5225C32.5472 28.9644 29.2856 28.5853 27.0659 26.9191C24.8125 25.4056 24.2844 21.7281 26.1362 19.6269C26.7534 18.8497 27.8059 18.2697 28.9103 17.9909L30.0628 17.8419C32.2756 17.7972 33.6587 18.3816 34.6741 19.5153C34.9566 19.8016 35.1872 20.1103 35.6184 20.7794C34.4397 21.5306 34.4434 21.5234 32.755 22.6166C32.3944 21.8397 31.7959 21.3522 31.1634 21.1403C30.1816 20.8428 28.9434 21.1663 28.6866 22.2038C28.5975 22.5234 28.6159 22.8209 28.7575 23.3491C29.1553 24.2563 30.4903 24.6506 31.6878 25.2009C35.135 26.5991 36.2991 28.0981 36.5853 29.8825C36.8609 31.4188 36.5187 32.4153 36.4666 32.5641Z" fill="#8C8C8C"/>
</svg>
