<svg width="20" height="20" viewBox="0 0 20 20" fill="none" xmlns="http://www.w3.org/2000/svg">
<path fill-rule="evenodd" clip-rule="evenodd" d="M10.0069 1.80554C5.39492 1.80554 1.66663 5.56132 1.66663 10.2077C1.66663 13.9219 4.05547 17.0658 7.36944 18.1785C7.78377 18.2622 7.93554 17.9977 7.93554 17.7753C7.93554 17.5805 7.92188 16.9128 7.92188 16.2172C5.60183 16.718 5.1187 15.2156 5.1187 15.2156C4.74586 14.2418 4.19341 13.9915 4.19341 13.9915C3.43406 13.4768 4.24873 13.4768 4.24873 13.4768C5.09105 13.5325 5.53303 14.3393 5.53303 14.3393C6.27856 15.619 7.4799 15.2574 7.9632 15.0348C8.03217 14.4922 8.25324 14.1167 8.48798 13.908C6.63758 13.7133 4.69071 12.9899 4.69071 9.76251C4.69071 8.84439 5.02191 8.09323 5.54669 7.50904C5.46389 7.30042 5.17384 6.43779 5.62966 5.28323C5.62966 5.28323 6.33387 5.06061 7.92171 6.14569C8.60152 5.96177 9.3026 5.86821 10.0069 5.86742C10.7111 5.86742 11.4289 5.9649 12.0918 6.14569C13.6798 5.06061 14.384 5.28323 14.384 5.28323C14.8399 6.43779 14.5496 7.30042 14.4668 7.50904C15.0055 8.09323 15.323 8.84439 15.323 9.76251C15.323 12.9899 13.3761 13.6993 11.5119 13.908C11.8158 14.1723 12.078 14.673 12.078 15.466C12.078 16.5927 12.0643 17.497 12.0643 17.7751C12.0643 17.9977 12.2163 18.2622 12.6304 18.1787C15.9444 17.0656 18.3333 13.9219 18.3333 10.2077C18.3469 5.56132 14.605 1.80554 10.0069 1.80554Z" fill="#8C8C8C"/>
</svg>
